<?xml version="1.0" encoding="UTF-8"?>
<svg width="172px" height="27px" viewBox="0 0 172 27" version="1.1" xmlns="http://www.w3.org/2000/svg" xmlns:xlink="http://www.w3.org/1999/xlink">
    <!-- Generator: Sketch 46 (44423) - http://www.bohemiancoding.com/sketch -->
    <title>TeenVogue</title>
    <desc>Created with Sketch.</desc>
    <defs>
        <rect id="path-1" x="0" y="0.969" width="172" height="25.73"></rect>
        <rect id="path-3" x="0" y="0.969" width="172" height="25.73"></rect>
        <rect id="path-5" x="0" y="0.969" width="172" height="25.73"></rect>
        <rect id="path-7" x="0" y="0.969" width="172" height="25.73"></rect>
        <rect id="path-9" x="0" y="0.969" width="172" height="25.73"></rect>
        <rect id="path-11" x="0" y="0.969" width="172" height="25.73"></rect>
        <rect id="path-13" x="0" y="0.969" width="172" height="25.73"></rect>
        <rect id="path-15" x="0" y="0.969" width="172" height="25.73"></rect>
    </defs>
    <g id="Desktop" stroke="none" stroke-width="1" fill="none" fill-rule="evenodd">
        <g id="02---Home-(Active-States)-" transform="translate(-554.000000, -871.000000)">
            <g id="Group-5" transform="translate(32.000000, 729.000000)">
                <g id="Group-6" transform="translate(522.000000, 73.000000)">
                    <g id="TeenVogue" transform="translate(0.000000, 69.000000)">
                        <g id="Clipped">
                            <mask id="mask-2" fill="white">
                                <use xlink:href="#path-1"></use>
                            </mask>
                            <g id="SVGID_1_"></g>
                            <path d="M10.412,7.436 L14.53,7.417 L15.745,1.951 L1.175,2.015 L0,7.476 L3.236,7.463 L0.562,19.688 C0.425,20.523 0.249,21.405 0.249,22.234 C0.258,24.634 1.339,25.999 2.788,26.7 L10.813,26.666 L11.953,21.538 L10.568,21.544 C9.27,21.504 7.883,21.418 7.873,19.425 C7.868,18.966 8.051,18.085 8.187,17.394 L10.412,7.436 Z" id="Shape" fill="#ED1D24" fill-rule="nonzero" mask="url(#mask-2)"></path>
                        </g>
                        <g id="Clipped">
                            <mask id="mask-4" fill="white">
                                <use xlink:href="#path-3"></use>
                            </mask>
                            <g id="SVGID_1_"></g>
                            <path d="M25.439,7.367 C26.316,7.361 27.197,7.588 27.938,7.997 C29.936,9.104 29.988,10.999 29.994,11.879 L19.813,11.926 C20.593,10.164 21.874,7.382 25.439,7.367 M17.738,26.5 L29.645,26.454 C32.745,24.946 34.272,22.435 35.304,20.742 L29.328,18.638 C28.64,19.844 27.259,22.211 23.514,22.227 C21.893,22.233 20.547,21.634 19.663,20.39 C18.919,19.331 18.871,18.311 18.861,16.415 L36.213,16.341 C36.304,15.276 36.392,14.259 36.382,13.193 C36.347,5.375 30.877,2.345 25.321,2.37 C15.841,2.404 11.848,10.708 11.873,16.307 C11.893,20.251 13.624,24.475 17.738,26.5" id="Shape" fill="#ED1D24" fill-rule="nonzero" mask="url(#mask-4)"></path>
                        </g>
                        <g id="Clipped">
                            <mask id="mask-6" fill="white">
                                <use xlink:href="#path-5"></use>
                            </mask>
                            <g id="SVGID_1_"></g>
                            <path d="M44.539,11.817 C45.314,10.055 46.601,7.274 50.161,7.252 C51.046,7.252 51.924,7.479 52.662,7.892 C54.657,8.999 54.715,10.888 54.721,11.774 L44.539,11.817 Z M61.108,13.082 C61.073,5.263 55.602,2.236 50.047,2.261 C40.561,2.298 36.569,10.603 36.599,16.202 C36.615,20.142 38.346,24.362 42.453,26.397 L54.377,26.341 C57.467,24.833 58.995,22.325 60.029,20.629 L54.049,18.528 C53.362,19.734 51.984,22.102 48.237,22.121 C46.615,22.127 45.269,21.53 44.386,20.281 C43.642,19.221 43.591,18.202 43.584,16.305 L60.935,16.231 C61.028,15.17 61.118,14.147 61.108,13.082 L61.108,13.082 Z" id="Shape" fill="#ED1D24" fill-rule="nonzero" mask="url(#mask-6)"></path>
                        </g>
                        <g id="Clipped">
                            <mask id="mask-8" fill="white">
                                <use xlink:href="#path-7"></use>
                            </mask>
                            <g id="SVGID_1_"></g>
                            <path d="M77.677,2.373 C74.021,2.385 71.947,4.567 70.748,5.869 L71.437,3 L64.259,3.028 L59.072,26.324 L66.201,26.29 L68.937,14.163 C69.34,12.261 69.936,10.365 71.084,9.197 C71.826,8.454 72.841,7.902 73.948,7.892 C74.827,7.889 76.638,8.343 76.644,10.564 C76.651,11.305 76.517,12 76.38,12.787 L73.46,26.262 L80.592,26.227 L83.96,11.18 C84.099,10.304 84.275,9.421 84.272,8.542 C84.257,4.471 81.285,2.354 77.677,2.373" id="Shape" fill="#ED1D24" fill-rule="nonzero" mask="url(#mask-8)"></path>
                        </g>
                        <g id="Clipped">
                            <mask id="mask-10" fill="white">
                                <use xlink:href="#path-9"></use>
                            </mask>
                            <g id="SVGID_1_"></g>
                            <path d="M166.175,18.945 C165.706,15.406 164.859,13.684 162.35,13.37 C161.921,13.373 160.908,13.373 160.573,13.382 C160.576,14.041 160.611,22.423 160.622,25.343 C161.953,25.343 162.298,25.331 163.621,25.334 C167.093,25.105 171.167,22.406 171.959,16.751 C171.972,19.597 171.987,22.522 172,25.58 L154.146,25.666 L154.153,25.372 L156.799,25.364 C156.763,17.316 156.728,9.88 156.695,1.977 L154.81,1.983 C154.848,8.363 154.87,13.593 154.892,20.225 C154.761,22.166 153.956,23.311 153.13,24.368 C152.038,25.641 150.752,25.974 150.114,26.133 C146.38,26.987 142.134,26.213 140.236,23.433 C139.735,22.55 139.427,22.072 139.372,19.094 L139.298,2.052 L137.091,2.058 L137.091,1.778 C139.925,1.778 142.461,1.76 145.36,1.741 L145.36,2.028 L143.121,2.036 L143.207,22.295 C143.157,23.367 143.907,24.713 145.823,25.798 C146.896,26.263 148.625,26.14 149.652,25.944 C150.442,25.84 150.939,25.615 151.617,25.279 C152.971,24.612 154.655,22.038 154.619,20.247 C154.588,13.333 154.531,1.978 154.531,1.978 L151.688,1.997 C151.674,1.686 151.691,1.981 151.688,1.717 L170.878,1.636 L170.914,9.62 C170.69,8.644 170.52,7.124 169.689,5.633 C168.265,2.901 166.522,1.841 163.456,1.95 L160.522,1.959 L160.566,13.097 C160.888,13.101 161.97,13.101 162.362,13.091 C164.917,12.839 165.734,11.481 166.123,8.233 L166.175,18.945 Z" id="Shape" fill="#000000" fill-rule="nonzero" mask="url(#mask-10)"></path>
                        </g>
                        <g id="Clipped">
                            <mask id="mask-12" fill="white">
                                <use xlink:href="#path-11"></use>
                            </mask>
                            <g id="SVGID_1_"></g>
                            <path d="M138.787,16.117 C138.21,16.111 137.805,16.117 137.358,16.117 C137.37,18.927 137.386,22.414 137.398,25.561 C136.829,24.57 136.164,24.023 134.722,24.443 C132.705,25.422 130.279,26.425 128.91,26.4 C127.449,26.444 125.973,25.932 124.625,25.282 C119.849,22.094 118.076,16.117 119.29,10.331 C120.165,6.642 122.782,2.537 126.651,1.285 C130.526,-0.145 133.162,3.908 135.788,1.036 C135.796,3.074 135.822,8.826 135.828,9.657 L135.828,9.943 C134.926,6.739 133.43,2.588 129.78,1.366 C127.564,0.897 125.594,1.9 124.666,3.597 C122.695,7.982 122.623,19.412 125.132,24.126 C125.447,24.844 126.821,26.214 128.916,26.108 C131.005,26.006 133.579,24.67 133.571,22.781 C133.565,20.483 133.553,18.6 133.535,16.142 L132.105,16.142 C132.099,16.011 132.092,16.011 132.099,15.857 L138.791,15.829 L138.787,16.117 Z" id="Shape" fill="#000000" fill-rule="nonzero" mask="url(#mask-12)"></path>
                        </g>
                        <g id="Clipped">
                            <mask id="mask-14" fill="white">
                                <use xlink:href="#path-13"></use>
                            </mask>
                            <g id="SVGID_1_"></g>
                            <path d="M111.402,2.978 C110.265,1.748 107.847,1.347 105.938,2.096 C102.521,3.898 102.292,8.494 102.004,12.338 C101.81,14.946 101.762,21.76 104.581,25.279 C105.727,26.411 107.959,26.575 109.379,26.149 C113.618,24.564 113.764,19.738 114.044,15.751 L114.046,15.67 C114.253,11.223 113.747,5.788 111.402,2.978 M113.199,24.854 C111.137,26.277 108.581,27.033 105.896,26.448 C102.545,25.758 99.468,22.618 98.341,19.431 C96.858,14.707 97.386,8.787 100.615,5.039 C103.16,2.488 106.249,0.859 109.922,1.639 C113.245,2.342 116.728,5.72 117.649,8.989 C119.551,14.688 118.071,21.153 113.199,24.854" id="Shape" fill="#000000" fill-rule="nonzero" mask="url(#mask-14)"></path>
                        </g>
                        <g id="Clipped">
                            <mask id="mask-16" fill="white">
                                <use xlink:href="#path-15"></use>
                            </mask>
                            <g id="SVGID_1_"></g>
                            <path d="M101.968,2.208 C101.906,2.23 99.896,2.214 99.625,2.23 C97.191,10.061 94.609,18.327 92.179,26.106 C91.659,24.856 91.21,23.711 90.697,22.342 L83.116,2.292 C82.27,2.301 82.04,2.304 81.378,2.298 L81.366,2.022 L89.048,1.994 L89.044,2.27 L87.221,2.28 L93.695,19.552 L93.814,19.884 C95.623,14.142 97.525,8.113 99.376,2.23 C98.518,2.227 97.599,2.236 96.821,2.236 L96.821,1.959 L101.958,1.931 L101.968,2.208 Z" id="Shape" fill="#000000" fill-rule="nonzero" mask="url(#mask-16)"></path>
                        </g>
                    </g>
                </g>
            </g>
        </g>
    </g>
</svg>